REM DIRINDEX 1\2,1\3,1\4
REM DIRNAME cjc153,folder01,folder02,folder03
TITLE ""
FILE "Track25.mp3" MP3
  TRACK 01 AUDIO
    TITLE "0:"
    INDEX 01 00:00:00
  TRACK 02 AUDIO
    TITLE "4:cjc153_1531"
    INDEX 01 00:00:07
  TRACK 03 AUDIO
    TITLE "0:"
    INDEX 01 00:02:08
  TRACK 04 AUDIO
    TITLE "2:cjc153_1532"
    INDEX 01 00:02:69
  TRACK 05 AUDIO
    TITLE "0:"
    INDEX 01 00:03:72
  TRACK 06 AUDIO
    TITLE "3:cjc153_1533"
    INDEX 01 00:04:31
  TRACK 07 AUDIO
    TITLE "0:"
    INDEX 01 00:05:40
  TRACK 08 AUDIO
    TITLE "2:cjc153_1534"
    INDEX 01 00:06:10
  TRACK 09 AUDIO
    TITLE "0:"
    INDEX 01 00:07:17
  TRACK 10 AUDIO
    TITLE "3:cjc153_1535"
    INDEX 01 00:07:51
  TRACK 11 AUDIO
    TITLE "0:"
    INDEX 01 00:08:62
  TRACK 12 AUDIO
    TITLE "2:cjc153_1536"
    INDEX 01 00:09:26
  TRACK 13 AUDIO
    TITLE "0:"
    INDEX 01 00:10:43
  TRACK 14 AUDIO
    TITLE "3:cjc153_1537"
    INDEX 01 00:10:74
  TRACK 15 AUDIO
    TITLE "0:"
    INDEX 01 00:12:16
  TRACK 16 AUDIO
    TITLE "2:cjc153_1538"
    INDEX 01 00:12:60
  TRACK 17 AUDIO
    TITLE "0:"
    INDEX 01 00:13:73
  TRACK 18 AUDIO
    TITLE "3:cjc153_1539"
    INDEX 01 00:14:33
  TRACK 19 AUDIO
    TITLE "0:"
    INDEX 01 00:15:54
  TRACK 20 AUDIO
    TITLE "2:cjc153_1540"
    INDEX 01 00:16:22
  TRACK 21 AUDIO
    TITLE "0:"
    INDEX 01 00:17:33
  TRACK 22 AUDIO
    TITLE "3:cjc153_1541"
    INDEX 01 00:17:65
  TRACK 23 AUDIO
    TITLE "0:"
    INDEX 01 00:19:01
  TRACK 24 AUDIO
    TITLE "2:cjc153_1542"
    INDEX 01 00:19:44
  TRACK 25 AUDIO
    TITLE "0:"
    INDEX 01 00:20:41
  TRACK 26 AUDIO
    TITLE "3:cjc153_1543"
    INDEX 01 00:20:71
  TRACK 27 AUDIO
    TITLE "0:"
    INDEX 01 00:21:70
  TRACK 28 AUDIO
    TITLE "2:cjc153_1544"
    INDEX 01 00:22:38
  TRACK 29 AUDIO
    TITLE "0:"
    INDEX 01 00:23:46
  TRACK 30 AUDIO
    TITLE "3:cjc153_1545"
    INDEX 01 00:24:06
  TRACK 31 AUDIO
    TITLE "0:"
    INDEX 01 00:25:15
  TRACK 32 AUDIO
    TITLE "2:cjc153_1546"
    INDEX 01 00:25:60
  TRACK 33 AUDIO
    TITLE "0:"
    INDEX 01 00:26:54
  TRACK 34 AUDIO
    TITLE "3:cjc153_1547"
    INDEX 01 00:27:12
  TRACK 35 AUDIO
    TITLE "0:"
    INDEX 01 00:28:08
  TRACK 36 AUDIO
    TITLE "2:cjc153_1548"
    INDEX 01 00:28:55
  TRACK 37 AUDIO
    TITLE "0:"
    INDEX 01 00:29:64
  TRACK 38 AUDIO
    TITLE "3:cjc153_1549"
    INDEX 01 00:30:22
  TRACK 39 AUDIO
    TITLE "0:"
    INDEX 01 00:31:31
  TRACK 40 AUDIO
    TITLE "2:cjc153_1550"
    INDEX 01 00:32:01
  TRACK 41 AUDIO
    TITLE "0:"
    INDEX 01 00:32:72
  TRACK 42 AUDIO
    TITLE "3:cjc153_1551"
    INDEX 01 00:33:30
  TRACK 43 AUDIO
    TITLE "0:"
    INDEX 01 00:34:32
  TRACK 44 AUDIO
    TITLE "2:cjc153_1552"
    INDEX 01 00:35:02
  TRACK 45 AUDIO
    TITLE "0:"
    INDEX 01 00:36:07
  TRACK 46 AUDIO
    TITLE "3:cjc153_1553"
    INDEX 01 00:36:40
  TRACK 47 AUDIO
    TITLE "0:"
    INDEX 01 00:37:48
  TRACK 48 AUDIO
    TITLE "2:cjc153_1554"
    INDEX 01 00:38:18
  TRACK 49 AUDIO
    TITLE "0:"
    INDEX 01 00:39:21
  TRACK 50 AUDIO
    TITLE "3:cjc153_1555"
    INDEX 01 00:39:52
  TRACK 51 AUDIO
    TITLE "0:"
    INDEX 01 00:40:62
  TRACK 52 AUDIO
    TITLE "2:cjc153_1556"
    INDEX 01 00:41:30
  TRACK 53 AUDIO
    TITLE "0:"
    INDEX 01 00:42:29
  TRACK 54 AUDIO
    TITLE "3:cjc153_1557"
    INDEX 01 00:42:63
  TRACK 55 AUDIO
    TITLE "0:"
    INDEX 01 00:43:64
  TRACK 56 AUDIO
    TITLE "2:cjc153_1558"
    INDEX 01 00:44:34
  TRACK 57 AUDIO
    TITLE "0:"
    INDEX 01 00:45:51
  TRACK 58 AUDIO
    TITLE "3:cjc153_1559"
    INDEX 01 00:46:07
  TRACK 59 AUDIO
    TITLE "0:"
    INDEX 01 00:47:28
  TRACK 60 AUDIO
    TITLE "2:cjc153_1560"
    INDEX 01 00:47:72
  TRACK 61 AUDIO
    TITLE "0:"
    INDEX 01 00:49:18
  TRACK 62 AUDIO
    TITLE "3:cjc153_1561"
    INDEX 01 00:49:53
  TRACK 63 AUDIO
    TITLE "0:"
    INDEX 01 00:51:01
  TRACK 64 AUDIO
    TITLE "2:cjc153_1562"
    INDEX 01 00:51:44
  TRACK 65 AUDIO
    TITLE "0:"
    INDEX 01 00:52:53
  TRACK 66 AUDIO
    TITLE "3:cjc153_1563"
    INDEX 01 00:53:11
  TRACK 67 AUDIO
    TITLE "0:"
    INDEX 01 00:54:19
  TRACK 68 AUDIO
    TITLE "2:cjc153_1564"
    INDEX 01 00:54:68
  TRACK 69 AUDIO
    TITLE "0:"
    INDEX 01 00:56:10
  TRACK 70 AUDIO
    TITLE "3:cjc153_1565"
    INDEX 01 00:56:41
  TRACK 71 AUDIO
    TITLE "0:"
    INDEX 01 00:57:60
  TRACK 72 AUDIO
    TITLE "2:cjc153_1566"
    INDEX 01 00:58:32
  TRACK 73 AUDIO
    TITLE "0:"
    INDEX 01 00:59:53
  TRACK 74 AUDIO
    TITLE "3:cjc153_1567"
    INDEX 01 01:00:10
  TRACK 75 AUDIO
    TITLE "0:"
    INDEX 01 01:01:36
  TRACK 76 AUDIO
    TITLE "2:cjc153_1568"
    INDEX 01 01:02:06
  TRACK 77 AUDIO
    TITLE "0:"
    INDEX 01 01:03:14
  TRACK 78 AUDIO
    TITLE "3:cjc153_1569"
    INDEX 01 01:03:45
  TRACK 79 AUDIO
    TITLE "0:"
    INDEX 01 01:04:56
  TRACK 80 AUDIO
    TITLE "2:cjc153_1570"
    INDEX 01 01:05:24
  TRACK 81 AUDIO
    TITLE "0:"
    INDEX 01 01:06:38
  TRACK 82 AUDIO
    TITLE "3:cjc153_1571"
    INDEX 01 01:06:73
  TRACK 83 AUDIO
    TITLE "0:"
    INDEX 01 01:08:17
  TRACK 84 AUDIO
    TITLE "2:cjc153_1572"
    INDEX 01 01:08:62
  TRACK 85 AUDIO
    TITLE "0:"
    INDEX 01 01:09:67
  TRACK 86 AUDIO
    TITLE "3:cjc153_1573"
    INDEX 01 01:10:28
  TRACK 87 AUDIO
    TITLE "0:"
    INDEX 01 01:11:41
  TRACK 88 AUDIO
    TITLE "2:cjc153_1574"
    INDEX 01 01:12:09
  TRACK 89 AUDIO
    TITLE "0:"
    INDEX 01 01:13:22
  TRACK 90 AUDIO
    TITLE "3:cjc153_1575"
    INDEX 01 01:13:55
  TRACK 91 AUDIO
    TITLE "0:"
    INDEX 01 01:14:74
  TRACK 92 AUDIO
    TITLE "2:cjc153_1576"
    INDEX 01 01:15:42
  TRACK 93 AUDIO
    TITLE "0:"
    INDEX 01 01:16:40
  TRACK 94 AUDIO
    TITLE "3:cjc153_1577"
    INDEX 01 01:16:71
  TRACK 95 AUDIO
    TITLE "0:"
    INDEX 01 01:17:71
  TRACK 96 AUDIO
    TITLE "2:cjc153_1578"
    INDEX 01 01:18:43
  TRACK 97 AUDIO
    TITLE "0:"
    INDEX 01 01:19:46
  TRACK 98 AUDIO
    TITLE "3:cjc153_1579"
    INDEX 01 01:20:02
  TRACK 99 AUDIO
    TITLE "0:"
    INDEX 01 01:21:08
  TRACK 100 AUDIO
    TITLE "2:cjc153_1580"
    INDEX 01 01:21:53
  TRACK 101 AUDIO
    TITLE "0:"
    INDEX 01 01:22:58
  TRACK 102 AUDIO
    TITLE "3:cjc153_1581"
    INDEX 01 01:23:15
  TRACK 103 AUDIO
    TITLE "0:"
    INDEX 01 01:24:24
